<svg xmlns="http://www.w3.org/2000/svg" version="1.1" xmlns:xlink="http://www.w3.org/1999/xlink" xmlns:svgjs="http://svgjs.dev/svgjs" width="1500" height="1500" viewBox="0 0 1500 1500"><rect width="1500" height="1500" fill="#444444"></rect><g transform="matrix(0.6666666666666666,0,0,0.6666666666666666,249.39393939393938,633.9477086591788)"><svg viewBox="0 0 396 92" data-background-color="#444444" preserveAspectRatio="xMidYMid meet" height="348" width="1500" xmlns="http://www.w3.org/2000/svg" xmlns:xlink="http://www.w3.org/1999/xlink"><g id="tight-bounds" transform="matrix(1,0,0,1,0.2400000000000091,0.02073622136012432)"><svg viewBox="0 0 395.52 91.95852755727974" height="91.95852755727974" width="395.52"><g><svg viewBox="0 0 395.52 91.95852755727974" height="91.95852755727974" width="395.52"><g transform="matrix(1,0,0,1,0,56.834059223556906)"><svg viewBox="0 0 395.52 35.12446833372283" height="35.12446833372283" width="395.52"><g id="textblocktransform"><svg viewBox="0 0 395.52 35.12446833372283" height="35.12446833372283" width="395.52" id="textblock"><g><svg viewBox="0 0 395.52 35.12446833372283" height="35.12446833372283" width="395.52"><g transform="matrix(1,0,0,1,0,0)"><svg width="395.52" viewBox="1.05 -37.5 429.36 38" height="35.12446833372283" data-palette-color="#ffffff"><g class="wordmark-text-0" data-fill-palette-color="primary" id="text-0"><path d="M1.05-33.9L1.05-35 19.05-35 19.05-33.9 13.75-33.9 13.75-1.1 15.55-1.1Q19.8-1.1 22.33-3.7 24.85-6.3 27.45-11.7L27.45-11.7 28.5-11.7 27.55 0 1.05 0 1.05-1.1 4-1.1 4-33.9 1.05-33.9ZM42.3-11.75L42.3-11.75 43.75-11.75 43.75-15.6Q43.75-20.35 43.22-21.98 42.7-23.6 41.2-23.6L41.2-23.6Q40.3-23.6 39.57-23.13 38.85-22.65 38.85-21.83 38.85-21 39.15-20.15L39.15-20.15 40.4-20.15Q40.8-19.1 40.8-17.63 40.8-16.15 39.55-15.08 38.3-14 36.4-14L36.4-14Q32.1-14 32.1-18.15L32.1-18.15Q32.1-24.3 42.55-24.3L42.55-24.3Q48.5-24.3 50.77-22.28 53.05-20.25 53.05-14.85L53.05-14.85 53.05-4.7Q53.05-2.1 54.5-2.1L54.5-2.1Q56.2-2.1 56.5-7.25L56.5-7.25 57.25-7.2Q57.05-2.8 55.6-1.15 54.15 0.5 50.85 0.5L50.85 0.5Q44.85 0.5 43.95-3.2L43.95-3.2Q43.3-1.3 42-0.4 40.7 0.5 38.2 0.5L38.2 0.5Q30.8 0.5 30.8-5.55L30.8-5.55Q30.8-9.1 33.62-10.43 36.45-11.75 42.3-11.75ZM40.3-5.6Q40.3-3 40.57-2.25 40.85-1.5 41.62-1.5 42.4-1.5 43.07-2.78 43.75-4.05 43.75-6.3L43.75-6.3 43.75-10.95 43.4-10.95Q40.3-10.95 40.3-6.4L40.3-6.4 40.3-5.6ZM57.85-22.9L57.85-23.8 69.9-23.8 69.9-19.2Q70.7-21.5 72.34-22.9 74-24.3 77.34-24.3L77.34-24.3Q85.09-24.3 85.09-15.95L85.09-15.95 85.09-0.9 87.9-0.9 87.9 0 73.75 0 73.75-0.9 75.8-0.9 75.8-17.15Q75.8-20.15 75.4-21.03 75-21.9 73.95-21.9L73.95-21.9Q72.34-21.9 71.12-19.8 69.9-17.7 69.9-14.7L69.9-14.7 69.9-0.9 72.05-0.9 72.05 0 57.85 0 57.85-0.9 60.6-0.9 60.6-22.9 57.85-22.9ZM98.69-10.35Q98.69-5.1 99.24-3.38 99.79-1.65 101.27-1.65 102.74-1.65 103.82-2.95 104.89-4.25 104.89-6.8L104.89-6.8 104.89-17.7Q104.89-19.85 104.04-21.35 103.19-22.85 101.54-22.85 99.89-22.85 99.29-20.65 98.69-18.45 98.69-12.95L98.69-12.95 98.69-10.35ZM116.64 0L105.54 0 104.99-3.5Q103.29 0.5 98.09 0.5L98.09 0.5Q93.79 0.5 91.42-2.6 89.04-5.7 89.04-11.85L89.04-11.85Q89.04-24.3 98.94-24.3L98.94-24.3Q103.34-24.3 104.74-21.85L104.74-21.85 104.74-36.6 101.69-36.6 101.69-37.5 114.19-37.5 114.19-0.9 116.64-0.9 116.64 0ZM134.09-9.85L134.09-9.85 134.09-14.1Q134.09-18.95 133.56-21.18 133.04-23.4 131.14-23.4L131.14-23.4Q130.04-23.4 129.37-22.78 128.69-22.15 128.39-20.7L128.39-20.7Q127.94-18.45 127.94-13.85L127.94-13.85 127.94-9.95Q127.94-4.5 128.27-3.4 128.59-2.3 128.94-1.6L128.94-1.6Q129.49-0.4 131.09-0.4L131.09-0.4Q133.04-0.4 133.64-2.65L133.64-2.65Q134.09-4.25 134.09-9.85ZM130.99 0.5Q124.74 0.5 121.54-2.7 118.34-5.9 118.34-11.88 118.34-17.85 121.77-21.08 125.19-24.3 131.39-24.3 137.59-24.3 140.64-21.33 143.69-18.35 143.69-12.25L143.69-12.25Q143.69 0.5 130.99 0.5L130.99 0.5ZM164.59-34.55L164.59-34.55Q156.84-34.55 156.84-19.6L156.84-19.6 156.84-15.65Q156.84-8.55 158.89-4.53 160.94-0.5 164.94-0.5L164.94-0.5Q170.44-0.5 175.04-11.2L175.04-11.2 175.94-11.2 175.59-0.05 175.04-0.05Q174.74-0.6 174.49-0.83 174.24-1.05 173.76-1.05 173.29-1.05 170.14-0.28 166.99 0.5 163.74 0.5L163.74 0.5Q155.59 0.5 151.11-3.9 146.64-8.3 146.64-17.13 146.64-25.95 151.31-30.75 155.99-35.55 163.89-35.55L163.89-35.55Q166.94-35.55 169.86-34.77 172.79-34 173.29-34 173.79-34 174.04-34.23 174.29-34.45 174.59-35L174.59-35 175.14-35 175.54-24.15 174.64-24.15Q172.39-29.2 170.01-31.88 167.64-34.55 164.59-34.55ZM195.74-9.85L195.74-9.85 195.74-14.1Q195.74-18.95 195.21-21.18 194.69-23.4 192.78-23.4L192.78-23.4Q191.69-23.4 191.01-22.78 190.34-22.15 190.03-20.7L190.03-20.7Q189.59-18.45 189.59-13.85L189.59-13.85 189.59-9.95Q189.59-4.5 189.91-3.4 190.24-2.3 190.59-1.6L190.59-1.6Q191.14-0.4 192.74-0.4L192.74-0.4Q194.69-0.4 195.28-2.65L195.28-2.65Q195.74-4.25 195.74-9.85ZM192.64 0.5Q186.39 0.5 183.19-2.7 179.99-5.9 179.99-11.88 179.99-17.85 183.41-21.08 186.84-24.3 193.03-24.3 199.24-24.3 202.29-21.33 205.34-18.35 205.34-12.25L205.34-12.25Q205.34 0.5 192.64 0.5L192.64 0.5ZM216.88-10.35Q216.88-5.1 217.43-3.38 217.98-1.65 219.46-1.65 220.93-1.65 222.01-2.95 223.08-4.25 223.08-6.8L223.08-6.8 223.08-17.7Q223.08-19.85 222.23-21.35 221.38-22.85 219.73-22.85 218.08-22.85 217.48-20.65 216.88-18.45 216.88-12.95L216.88-12.95 216.88-10.35ZM234.83 0L223.73 0 223.18-3.5Q221.48 0.5 216.28 0.5L216.28 0.5Q211.98 0.5 209.61-2.6 207.23-5.7 207.23-11.85L207.23-11.85Q207.23-24.3 217.13-24.3L217.13-24.3Q221.53-24.3 222.93-21.85L222.93-21.85 222.93-36.6 219.88-36.6 219.88-37.5 232.38-37.5 232.38-0.9 234.83-0.9 234.83 0ZM249.28 0.5Q242.83 0.5 239.61-2.83 236.38-6.15 236.38-12.08 236.38-18 240.01-21.15 243.63-24.3 249.23-24.3L249.23-24.3Q260.58-24.3 260.13-12.9L260.13-12.9 246.03-12.9 246.03-10.95Q246.03-6.05 247.28-3.55 248.53-1.05 251.63-1.05L251.63-1.05Q257.43-1.05 259.23-7.25L259.23-7.25 260.13-7.1Q259.18-3.5 256.71-1.5 254.23 0.5 249.28 0.5L249.28 0.5ZM246.08-16.35L246.08-13.9 251.23-13.9 251.23-16.35Q251.23-20.4 250.76-21.88 250.28-23.35 248.86-23.35 247.43-23.35 246.76-21.78 246.08-20.2 246.08-16.35L246.08-16.35ZM263.68 0.5L263.08 0.5 263.08-8.45 263.68-8.45Q264.98-4.1 267.18-2.35 269.38-0.6 272.68-0.6L272.68-0.6Q277.78-0.6 277.78-3.85L277.78-3.85Q277.78-5.25 276.53-5.95L276.53-5.95Q274.58-7.05 271.53-7.65L271.53-7.65Q268.13-8.55 265.83-10.05L265.83-10.05Q263.08-11.85 263.08-15.75 263.08-19.65 265.48-21.98 267.88-24.3 271.88-24.3L271.88-24.3Q274.33-24.3 276.93-23.15L276.93-23.15Q277.88-22.75 278.38-22.75 278.88-22.75 279.23-23.1 279.58-23.45 280.08-24.4L280.08-24.4 280.63-24.4 280.63-16.75 280.03-16.75Q277.48-23.25 272.13-23.25L272.13-23.25Q269.78-23.25 268.63-22.43 267.48-21.6 267.48-20.35L267.48-20.35Q267.48-19.6 267.83-19.18 268.18-18.75 268.38-18.55 268.58-18.35 269.03-18.13 269.48-17.9 269.78-17.78 270.08-17.65 270.7-17.45 271.33-17.25 271.63-17.2L271.63-17.2Q275.03-16.35 276.53-15.73 278.03-15.1 279.38-14.2L279.38-14.2Q282.13-12.3 282.13-8.08 282.13-3.85 279.63-1.68 277.13 0.5 272.78 0.5L272.78 0.5Q269.68 0.5 266.78-0.95L266.78-0.95Q266.18-1.35 265.83-1.35L265.83-1.35Q264.73-1.35 263.68 0.5L263.68 0.5ZM299.52-17.7L299.52-17.7 296.88-17.7 296.88-0.95 300.13-0.95 300.13 0 283.88 0 283.88-0.95 287.13-0.95 287.13-34.05 283.88-34.05 283.88-35 298.98-35Q305.48-35 308.2-34.33 310.93-33.65 312.02-32.7L312.02-32.7Q314.43-30.75 314.43-26.5 314.43-22.25 312.32-20.43 310.23-18.6 305.93-18.25L305.93-18.25 305.93-18.1Q309.98-17.55 311.57-15.7 313.18-13.85 313.18-9.5L313.18-9.5 313.18-6.85Q313.18-4.25 313.45-3.35 313.73-2.45 314.63-2.45 315.52-2.45 316.05-3.28 316.57-4.1 317.02-6.75L317.02-6.75 317.88-6.65Q317.32-2.4 315.95-0.95 314.57 0.5 310.48 0.5 306.38 0.5 304.65-1.43 302.93-3.35 302.93-8.65L302.93-8.65 302.93-12.3Q302.93-15.1 302.2-16.4 301.48-17.7 299.52-17.7ZM298.52-34.05L296.88-34.05 296.88-18.65 298.48-18.65Q301.32-18.65 302.7-20.4 304.07-22.15 304.07-26.1L304.07-26.1 304.07-27.55Q304.07-31.5 302.75-32.77 301.43-34.05 298.52-34.05L298.52-34.05ZM326.77-27.25Q324.12-27.25 323-28.6 321.87-29.95 321.87-31.95 321.87-33.95 323.1-35.25 324.32-36.55 326.82-36.55 329.32-36.55 330.62-35.38 331.92-34.2 331.92-32.02 331.92-29.85 330.67-28.55 329.42-27.25 326.77-27.25ZM319.22-22.9L319.22-23.8 331.47-23.8 331.47-0.9 334.27-0.9 334.27 0 319.42 0 319.42-0.9 322.17-0.9 322.17-22.9 319.22-22.9ZM337.02 0.5L336.42 0.5 336.42-8.45 337.02-8.45Q338.32-4.1 340.52-2.35 342.72-0.6 346.02-0.6L346.02-0.6Q351.12-0.6 351.12-3.85L351.12-3.85Q351.12-5.25 349.87-5.95L349.87-5.95Q347.92-7.05 344.87-7.65L344.87-7.65Q341.47-8.55 339.17-10.05L339.17-10.05Q336.42-11.85 336.42-15.75 336.42-19.65 338.82-21.98 341.22-24.3 345.22-24.3L345.22-24.3Q347.67-24.3 350.27-23.15L350.27-23.15Q351.22-22.75 351.72-22.75 352.22-22.75 352.57-23.1 352.92-23.45 353.42-24.4L353.42-24.4 353.97-24.4 353.97-16.75 353.37-16.75Q350.82-23.25 345.47-23.25L345.47-23.25Q343.12-23.25 341.97-22.43 340.82-21.6 340.82-20.35L340.82-20.35Q340.82-19.6 341.17-19.18 341.52-18.75 341.72-18.55 341.92-18.35 342.37-18.13 342.82-17.9 343.12-17.78 343.42-17.65 344.05-17.45 344.67-17.25 344.97-17.2L344.97-17.2Q348.37-16.35 349.87-15.73 351.37-15.1 352.72-14.2L352.72-14.2Q355.47-12.3 355.47-8.08 355.47-3.85 352.97-1.68 350.47 0.5 346.12 0.5L346.12 0.5Q343.02 0.5 340.12-0.95L340.12-0.95Q339.52-1.35 339.17-1.35L339.17-1.35Q338.07-1.35 337.02 0.5L337.02 0.5ZM364.32-27.25Q361.67-27.25 360.54-28.6 359.42-29.95 359.42-31.95 359.42-33.95 360.64-35.25 361.87-36.55 364.37-36.55 366.87-36.55 368.17-35.38 369.47-34.2 369.47-32.02 369.47-29.85 368.22-28.55 366.97-27.25 364.32-27.25ZM356.77-22.9L356.77-23.8 369.02-23.8 369.02-0.9 371.82-0.9 371.82 0 356.97 0 356.97-0.9 359.72-0.9 359.72-22.9 356.77-22.9ZM384.82-11.75L384.82-11.75 386.27-11.75 386.27-15.6Q386.27-20.35 385.74-21.98 385.22-23.6 383.72-23.6L383.72-23.6Q382.82-23.6 382.09-23.13 381.37-22.65 381.37-21.83 381.37-21 381.67-20.15L381.67-20.15 382.92-20.15Q383.32-19.1 383.32-17.63 383.32-16.15 382.07-15.08 380.82-14 378.92-14L378.92-14Q374.62-14 374.62-18.15L374.62-18.15Q374.62-24.3 385.07-24.3L385.07-24.3Q391.02-24.3 393.29-22.28 395.57-20.25 395.57-14.85L395.57-14.85 395.57-4.7Q395.57-2.1 397.02-2.1L397.02-2.1Q398.72-2.1 399.02-7.25L399.02-7.25 399.77-7.2Q399.57-2.8 398.12-1.15 396.67 0.5 393.37 0.5L393.37 0.5Q387.37 0.5 386.47-3.2L386.47-3.2Q385.82-1.3 384.52-0.4 383.22 0.5 380.72 0.5L380.72 0.5Q373.32 0.5 373.32-5.55L373.32-5.55Q373.32-9.1 376.14-10.43 378.97-11.75 384.82-11.75ZM382.82-5.6Q382.82-3 383.09-2.25 383.37-1.5 384.14-1.5 384.92-1.5 385.59-2.78 386.27-4.05 386.27-6.3L386.27-6.3 386.27-10.95 385.92-10.95Q382.82-10.95 382.82-6.4L382.82-6.4 382.82-5.6ZM400.36-22.9L400.36-23.8 412.41-23.8 412.41-19.2Q413.21-21.5 414.86-22.9 416.51-24.3 419.86-24.3L419.86-24.3Q427.61-24.3 427.61-15.95L427.61-15.95 427.61-0.9 430.41-0.9 430.41 0 416.26 0 416.26-0.9 418.31-0.9 418.31-17.15Q418.31-20.15 417.91-21.03 417.51-21.9 416.46-21.9L416.46-21.9Q414.86-21.9 413.64-19.8 412.41-17.7 412.41-14.7L412.41-14.7 412.41-0.9 414.56-0.9 414.56 0 400.36 0 400.36-0.9 403.11-0.9 403.11-22.9 400.36-22.9Z" fill="#ffffff" data-fill-palette-color="primary"></path></g></svg></g></svg></g></svg></g></svg></g><g transform="matrix(1,0,0,1,167.10188511334422,0)"><svg viewBox="0 0 61.31622977331152 48.54201523720496" height="48.54201523720496" width="61.31622977331152"><g><svg xmlns="http://www.w3.org/2000/svg" xmlns:xlink="http://www.w3.org/1999/xlink" version="1.1" x="0" y="0" viewBox="5 5 48 38" enable-background="new 0 0 58 48" xml:space="preserve" height="48.54201523720496" width="61.31622977331152" class="icon-icon-0" data-fill-palette-color="accent" id="icon-0"><path fill-rule="evenodd" clip-rule="evenodd" d="M5 43V13h48v30H5zM51 41V15H7v26H51zM9 9h40v2H9V9zM13 5h32v2H13V5zM23.651 35.008L17 28l6.651-7.009 1.365 1.407L19.73 28h0l5.286 5.602L23.651 35.008zM34.349 20.992L41 28l-6.651 7.009-1.365-1.407L38.27 28h0l-5.286-5.602L34.349 20.992z" fill="#00d1cd" data-fill-palette-color="accent"></path></svg></g></svg></g><g></g></svg></g><defs></defs></svg><rect width="395.52" height="91.95852755727974" fill="none" stroke="none" visibility="hidden"></rect></g></svg></g></svg>